# xmcd CD database file
#
# Track frame offsets:
#	150
#	9324
#	22082
#	30945
#	42498
#	56685
#	66939
#	82691
#	93301
#	103116
#	114717
#	127507
#	139449
#	154936
#	167813
#	181620
#	194725
#	206210
#	218509
#	229912
#
# Disc length: 3228 seconds
#
# Revision: 0
# Processed by: cddbd v1.5.2PL0 Copyright (c) Steve Scherf et al.
# Submitted via: CDex 1.70beta2
#
DISCID=100c9a14
DTITLE=Sonny Boy Williamson - Blues Greats
DYEAR=2011
DGENRE=Blues
TTITLE0=One Way Out
TTITLE1=Keep It To Yourself
TTITLE2=Checkin' Up On My Baby
TTITLE3=The Key (To Your Door)
TTITLE4=Help Me
TTITLE5=Temperature 110
TTITLE6=You Killing Me
TTITLE7=Fattening Frogs For Snakes
TTITLE8=She's My Baby
TTITLE9=This Old Life
TTITLE10=All My Love In Vain
TTITLE11=Bye Bye Bird
TTITLE12=Decoration Day
TTITLE13=Like Wolf
TTITLE14=Lonesome Cabin
TTITLE15=Open Road
TTITLE16=She Got Next
TTITLE17=To Me
TTITLE18=Santa Claus
TTITLE19=Your Funeral And My Trial
EXTD=YEAR: 2011
EXTT0=
EXTT1=
EXTT2=
EXTT3=
EXTT4=
EXTT5=
EXTT6=
EXTT7=
EXTT8=
EXTT9=
EXTT10=
EXTT11=
EXTT12=
EXTT13=
EXTT14=
EXTT15=
EXTT16=
EXTT17=
EXTT18=
EXTT19=
PLAYORDER=
